<svg width="278" height="54" viewBox="0 0 278 54" fill="none" xmlns="http://www.w3.org/2000/svg">
<path d="M2.97326 0.609619H0V53.385H2.97326V0.609619Z" fill="black"/>
<path d="M5.94659 0.609619H4.45996V53.385H5.94659V0.609619Z" fill="black"/>
<path d="M13.3798 0.609619H8.91992V53.385H13.3798V0.609619Z" fill="black"/>
<path d="M20.8124 0.609619H16.3525V53.385H20.8124V0.609619Z" fill="black"/>
<path d="M25.2731 0.609619H22.2998V53.385H25.2731V0.609619Z" fill="black"/>
<path d="M31.2187 0.609619H26.7588V53.385H31.2187V0.609619Z" fill="black"/>
<path d="M34.1927 0.609619H32.7061V53.385H34.1927V0.609619Z" fill="black"/>
<path d="M40.1393 0.609619H37.166V53.385H40.1393V0.609619Z" fill="black"/>
<path d="M47.5726 0.609619H46.0859V53.385H47.5726V0.609619Z" fill="black"/>
<path d="M50.5452 0.609619H49.0586V53.385H50.5452V0.609619Z" fill="black"/>
<path d="M57.9791 0.609619H55.0059V53.385H57.9791V0.609619Z" fill="black"/>
<path d="M63.9251 0.609619H62.4385V53.385H63.9251V0.609619Z" fill="black"/>
<path d="M68.3854 0.609619H65.4121V53.385H68.3854V0.609619Z" fill="black"/>
<path d="M71.3587 0.609619H69.8721V53.385H71.3587V0.609619Z" fill="black"/>
<path d="M80.2783 0.609619H75.8184V53.385H80.2783V0.609619Z" fill="black"/>
<path d="M84.7379 0.609619H81.7646V53.385H84.7379V0.609619Z" fill="black"/>
<path d="M92.1712 0.609619H90.6846V53.385H92.1712V0.609619Z" fill="black"/>
<path d="M187.316 0.609619H185.829V53.385H187.316V0.609619Z" fill="black"/>
<path d="M96.6312 0.609619H95.1445V53.385H96.6312V0.609619Z" fill="black"/>
<path d="M191.776 0.609619H190.289V53.385H191.776V0.609619Z" fill="black"/>
<path d="M99.6038 0.609619H98.1172V53.385H99.6038V0.609619Z" fill="black"/>
<path d="M194.748 0.609619H193.262V53.385H194.748V0.609619Z" fill="black"/>
<path d="M108.524 0.609619H104.064V53.385H108.524V0.609619Z" fill="black"/>
<path d="M203.669 0.609619H199.209V53.385H203.669V0.609619Z" fill="black"/>
<path d="M112.984 0.609619H110.011V53.385H112.984V0.609619Z" fill="black"/>
<path d="M208.129 0.609619H205.155V53.385H208.129V0.609619Z" fill="black"/>
<path d="M120.417 0.609619H114.471V53.385H120.417V0.609619Z" fill="black"/>
<path d="M215.562 0.609619H209.615V53.385H215.562V0.609619Z" fill="black"/>
<path d="M126.364 0.609619H124.877V53.385H126.364V0.609619Z" fill="black"/>
<path d="M221.508 0.609619H220.021V53.385H221.508V0.609619Z" fill="black"/>
<path d="M129.337 0.609619H127.851V53.385H129.337V0.609619Z" fill="black"/>
<path d="M224.481 0.609619H222.994V53.385H224.481V0.609619Z" fill="black"/>
<path d="M136.77 0.609619H130.823V53.385H136.77V0.609619Z" fill="black"/>
<path d="M231.914 0.609619H225.968V53.385H231.914V0.609619Z" fill="black"/>
<path d="M139.743 0.609619H138.257V53.385H139.743V0.609619Z" fill="black"/>
<path d="M234.888 0.609619H233.401V53.385H234.888V0.609619Z" fill="black"/>
<path d="M145.69 0.609619H144.203V53.385H145.69V0.609619Z" fill="black"/>
<path d="M240.834 0.609619H239.348V53.385H240.834V0.609619Z" fill="black"/>
<path d="M153.123 0.609619H147.177V53.385H153.123V0.609619Z" fill="black"/>
<path d="M248.268 0.609619H242.321V53.385H248.268V0.609619Z" fill="black"/>
<path d="M157.582 0.609619H156.096V53.385H157.582V0.609619Z" fill="black"/>
<path d="M252.728 0.609619H251.241V53.385H252.728V0.609619Z" fill="black"/>
<path d="M162.042 0.609619H160.556V53.385H162.042V0.609619Z" fill="black"/>
<path d="M257.187 0.609619H255.7V53.385H257.187V0.609619Z" fill="black"/>
<path d="M166.503 0.609619H163.529V53.385H166.503V0.609619Z" fill="black"/>
<path d="M261.647 0.609619H258.674V53.385H261.647V0.609619Z" fill="black"/>
<path d="M175.422 0.609619H170.962V53.385H175.422V0.609619Z" fill="black"/>
<path d="M270.567 0.609619H266.107V53.385H270.567V0.609619Z" fill="black"/>
<path d="M178.396 0.609619H176.909V53.385H178.396V0.609619Z" fill="black"/>
<path d="M273.54 0.609619H272.054V53.385H273.54V0.609619Z" fill="black"/>
<path d="M182.856 0.609619H179.883V53.385H182.856V0.609619Z" fill="black"/>
<path d="M278 0.609619H275.026V53.385H278V0.609619Z" fill="black"/>
</svg>
