<svg width="17" height="17" viewBox="0 0 17 17" fill="none" xmlns="http://www.w3.org/2000/svg">
<path d="M8.20671 3.72991C9.50456 3.72991 10.7275 4.30525 11.6237 5.20466V5.20731C11.6237 4.77541 11.9143 4.44869 12.3159 4.44869H12.4179C13.0517 4.44869 13.1787 5.04634 13.1787 5.23494L13.1813 11.9473C13.1372 12.3872 13.6356 12.6145 13.9123 12.3319C14.9881 11.2253 16.2775 6.63744 13.2424 3.98119C10.4119 1.50184 6.61296 1.91144 4.59315 3.30331C2.44637 4.78656 1.07415 8.06278 2.40706 11.1419C3.86268 14.4989 8.02396 15.5003 10.5007 14.5015C11.7544 13.9952 12.3324 15.6878 11.0292 16.2419C9.06521 17.0797 3.59174 16.9942 1.03537 12.5672C-0.691724 9.57684 -0.600349 4.31641 3.98221 1.59109C7.48474 -0.495124 12.1061 0.0828762 14.892 2.99147C17.8032 6.035 17.6348 11.7295 14.7926 13.9432C13.5054 14.9499 11.594 13.9708 11.6078 12.504L11.5934 12.0259C10.6972 12.9136 9.50456 13.4342 8.20671 13.4342C5.63918 13.4342 3.37871 11.1733 3.37871 8.60838C3.37871 6.01588 5.63918 3.73097 8.20671 3.73097V3.72991ZM11.4362 8.42297C11.339 6.54394 9.94443 5.41237 8.25931 5.41237H8.19556C6.25331 5.41237 5.17434 6.94238 5.17434 8.67691C5.17434 10.6218 6.47749 11.8501 8.18759 11.8501C10.0964 11.8501 11.3496 10.4534 11.441 8.80122L11.4362 8.42297Z" fill="black" fill-opacity="0.8"/>
</svg>
