<svg width="28" height="28" viewBox="0 0 28 28" fill="none" xmlns="http://www.w3.org/2000/svg">
<path d="M4.5625 21.6722V19.3909H6.84379V11.4064C6.84379 9.82853 7.31906 8.42629 8.2696 7.19972C9.22014 5.97314 10.4558 5.17013 11.9767 4.79067V3.99222C11.9767 3.51695 12.1432 3.11278 12.4763 2.77971C12.8094 2.44665 13.2132 2.28049 13.6877 2.28125C14.1629 2.28125 14.5671 2.44779 14.9002 2.78086C15.2332 3.11392 15.3994 3.51771 15.3986 3.99222V4.79067C16.9195 5.17089 18.1552 5.97428 19.1057 7.20086C20.0563 8.42743 20.5315 9.82929 20.5315 11.4064V19.3909H22.8128V21.6722H4.5625ZM13.6877 25.0942C13.0603 25.0942 12.5231 24.8706 12.0759 24.4235C11.6288 23.9763 11.4056 23.4395 11.4064 22.8129H15.969C15.969 23.4402 15.7454 23.9775 15.2983 24.4246C14.8511 24.8717 14.3143 25.0949 13.6877 25.0942ZM9.12508 19.3909H18.2502V11.4064C18.2502 10.1517 17.8035 9.0776 16.91 8.1841C16.0165 7.29059 14.9424 6.84384 13.6877 6.84384C12.433 6.84384 11.3588 7.29059 10.4653 8.1841C9.57184 9.0776 9.12508 10.1517 9.12508 11.4064V19.3909Z" fill="#409050"/>
</svg>
