<svg width="28" height="28" viewBox="0 0 28 28" fill="none" xmlns="http://www.w3.org/2000/svg">
<path d="M13.6877 19.3912C14.0109 19.3912 14.282 19.2817 14.501 19.0627C14.72 18.8437 14.8291 18.5729 14.8283 18.2505C14.8283 17.9273 14.7188 17.6562 14.4998 17.4372C14.2808 17.2182 14.0101 17.1091 13.6877 17.1099C13.3645 17.1099 13.0934 17.2194 12.8744 17.4384C12.6554 17.6574 12.5463 17.9281 12.547 18.2505C12.547 18.5737 12.6565 18.8448 12.8755 19.0638C13.0946 19.2828 13.3653 19.3919 13.6877 19.3912ZM12.547 14.8286H14.8283V7.9847H12.547V14.8286ZM9.41027 23.9537L3.42188 17.9654V9.41051L9.41027 3.42212H17.9651L23.9535 9.41051V17.9654L17.9651 23.9537H9.41027ZM10.3798 21.6725H16.9956L21.6722 16.9958V10.3801L16.9956 5.70341H10.3798L5.70317 10.3801V16.9958L10.3798 21.6725Z" fill="#409050"/>
</svg>
