<svg width="28" height="28" viewBox="0 0 28 28" fill="none" xmlns="http://www.w3.org/2000/svg">
<path d="M4.5625 20.5316C4.5625 19.3215 5.0432 18.161 5.89885 17.3053C6.7545 16.4497 7.91501 15.969 9.12508 15.969H18.2503C19.4603 15.969 20.6208 16.4497 21.4765 17.3053C22.3321 18.161 22.8128 19.3215 22.8128 20.5316C22.8128 21.1366 22.5725 21.7169 22.1447 22.1447C21.7168 22.5725 21.1366 22.8129 20.5315 22.8129H6.84379C6.23876 22.8129 5.6585 22.5725 5.23067 22.1447C4.80285 21.7169 4.5625 21.1366 4.5625 20.5316Z" stroke="#409050" stroke-width="2.28129" stroke-linejoin="round"/>
<path d="M13.6878 11.4064C15.5777 11.4064 17.1097 9.87432 17.1097 7.98444C17.1097 6.09455 15.5777 4.5625 13.6878 4.5625C11.7979 4.5625 10.2659 6.09455 10.2659 7.98444C10.2659 9.87432 11.7979 11.4064 13.6878 11.4064Z" stroke="#409050" stroke-width="2.28129"/>
</svg>
