<svg width="28" height="28" viewBox="0 0 28 28" fill="none" xmlns="http://www.w3.org/2000/svg">
<path d="M17.9653 2.28125C18.646 2.28125 19.2987 2.55164 19.78 3.03295C20.2614 3.51425 20.5317 4.16704 20.5317 4.8477V22.5277C20.5317 23.2084 20.2614 23.8612 19.78 24.3425C19.2987 24.8238 18.646 25.0942 17.9653 25.0942H9.41045C8.72978 25.0942 8.07699 24.8238 7.59569 24.3425C7.11439 23.8612 6.84399 23.2084 6.84399 22.5277V4.8477C6.84399 4.16704 7.11439 3.51425 7.59569 3.03295C8.07699 2.55164 8.72978 2.28125 9.41045 2.28125H17.9653ZM17.9653 3.99222H9.41045C9.18356 3.99222 8.96596 4.08235 8.80553 4.24278C8.64509 4.40322 8.55496 4.62081 8.55496 4.8477V22.5277C8.55496 22.9999 8.93822 23.3832 9.41045 23.3832H17.9653C18.1922 23.3832 18.4098 23.2931 18.5702 23.1326C18.7306 22.9722 18.8208 22.7546 18.8208 22.5277V4.8477C18.8208 4.62081 18.7306 4.40322 18.5702 4.24278C18.4098 4.08235 18.1922 3.99222 17.9653 3.99222ZM15.1125 19.9613C15.3394 19.961 15.5571 20.0508 15.7178 20.211C15.8784 20.3712 15.9689 20.5887 15.9692 20.8156C15.9695 21.0425 15.8796 21.2602 15.7194 21.4209C15.5592 21.5815 15.3417 21.6719 15.1148 21.6722L12.2632 21.6768C12.0363 21.6771 11.8186 21.5873 11.6579 21.427C11.4973 21.2668 11.4069 21.0493 11.4066 20.8224C11.4063 20.5956 11.4961 20.3778 11.6563 20.2172C11.8166 20.0565 12.034 19.9661 12.2609 19.9658L15.1125 19.9613Z" fill="#409050"/>
</svg>
