<svg width="28" height="28" viewBox="0 0 28 28" fill="none" xmlns="http://www.w3.org/2000/svg">
<path d="M12.5471 20.5318H14.8284V18.2505H12.5471V20.5318ZM13.6877 2.28149C12.1898 2.28149 10.7065 2.57653 9.32265 3.14976C7.93875 3.72299 6.68131 4.56318 5.62212 5.62237C3.483 7.76149 2.28125 10.6628 2.28125 13.688C2.28125 16.7131 3.483 19.6144 5.62212 21.7535C6.68131 22.8127 7.93875 23.6529 9.32265 24.2261C10.7065 24.7994 12.1898 25.0944 13.6877 25.0944C16.7129 25.0944 19.6142 23.8927 21.7533 21.7535C23.8924 19.6144 25.0942 16.7131 25.0942 13.688C25.0942 12.19 24.7991 10.7068 24.2259 9.32289C23.6527 7.93899 22.8125 6.68156 21.7533 5.62237C20.6941 4.56318 19.4367 3.72299 18.0528 3.14976C16.6689 2.57653 15.1856 2.28149 13.6877 2.28149ZM13.6877 22.8131C8.65746 22.8131 4.56254 18.7182 4.56254 13.688C4.56254 8.6577 8.65746 4.56279 13.6877 4.56279C18.718 4.56279 22.8129 8.6577 22.8129 13.688C22.8129 18.7182 18.718 22.8131 13.6877 22.8131ZM13.6877 6.84408C12.4776 6.84408 11.3171 7.32478 10.4615 8.18043C9.60582 9.03608 9.12513 10.1966 9.12512 11.4067H11.4064C11.4064 10.8016 11.6468 10.2214 12.0746 9.79354C12.5024 9.36572 13.0827 9.12537 13.6877 9.12537C14.2927 9.12537 14.873 9.36572 15.3008 9.79354C15.7287 10.2214 15.969 10.8016 15.969 11.4067C15.969 13.688 12.5471 13.4028 12.5471 17.1099H14.8284C14.8284 14.5434 18.2503 14.2583 18.2503 11.4067C18.2503 10.1966 17.7696 9.03608 16.9139 8.18043C16.0583 7.32478 14.8978 6.84408 13.6877 6.84408Z" fill="#409050"/>
</svg>
