<svg width="28" height="28" viewBox="0 0 28 28" fill="none" xmlns="http://www.w3.org/2000/svg">
<path d="M17.9651 16.5393C17.7382 16.5393 17.5206 16.6294 17.3602 16.7898C17.1998 16.9503 17.1096 17.1679 17.1096 17.3947C17.1096 17.6216 17.1998 17.8392 17.3602 17.9997C17.5206 18.1601 17.7382 18.2502 17.9651 18.2502H20.8167C21.0436 18.2502 21.2612 18.1601 21.4217 17.9997C21.5821 17.8392 21.6722 17.6216 21.6722 17.3947C21.6722 17.1679 21.5821 16.9503 21.4217 16.7898C21.2612 16.6294 21.0436 16.5393 20.8167 16.5393H17.9651ZM2.28125 9.41022C2.28125 8.42704 2.67182 7.48413 3.36703 6.78891C4.06225 6.09369 5.00517 5.70313 5.98835 5.70312H21.3871C21.8739 5.70312 22.3559 5.79901 22.8057 5.98531C23.2555 6.17161 23.6641 6.44467 24.0084 6.78891C24.3526 7.13315 24.6257 7.54181 24.812 7.99158C24.9983 8.44134 25.0942 8.9234 25.0942 9.41022V17.9651C25.0942 18.4519 24.9983 18.9339 24.812 19.3837C24.6257 19.8335 24.3526 20.2421 24.0084 20.5864C23.6641 20.9306 23.2555 21.2037 22.8057 21.39C22.3559 21.5763 21.8739 21.6722 21.3871 21.6722H5.98835C5.00517 21.6722 4.06225 21.2816 3.36703 20.5864C2.67182 19.8912 2.28125 18.9483 2.28125 17.9651V9.41022ZM23.3832 10.836V9.41022C23.3832 8.88082 23.1729 8.37309 22.7985 7.99875C22.4242 7.6244 21.9165 7.41409 21.3871 7.41409H5.98835C5.45894 7.41409 4.95122 7.6244 4.57687 7.99875C4.20252 8.37309 3.99222 8.88082 3.99222 9.41022V10.836H23.3832ZM3.99222 12.547V17.9651C3.99222 19.0669 4.88649 19.9612 5.98835 19.9612H21.3871C21.9165 19.9612 22.4242 19.7509 22.7985 19.3765C23.1729 19.0022 23.3832 18.4945 23.3832 17.9651V12.547H3.99222Z" fill="#409050"/>
</svg>
