<svg width="22" height="20" viewBox="0 0 22 20" fill="none" xmlns="http://www.w3.org/2000/svg">
<path fill-rule="evenodd" clip-rule="evenodd" d="M17.9992 3.00312V6.26212C18.3932 6.26212 18.7833 6.33972 19.1472 6.49049C19.5112 6.64125 19.8419 6.86223 20.1205 7.1408C20.3991 7.41938 20.6201 7.7501 20.7708 8.11407C20.9216 8.47805 20.9992 8.86816 20.9992 9.26213C20.9992 9.65609 20.9216 10.0462 20.7708 10.4102C20.6201 10.7742 20.3991 11.1049 20.1205 11.3834C19.8419 11.662 19.5112 11.883 19.1472 12.0338C18.7833 12.1845 18.3932 12.2621 17.9992 12.2621V15.2621C17.9992 16.9101 16.1182 17.8511 14.7992 16.8621L12.7392 15.3161C11.6381 14.4905 10.356 13.9392 8.9992 13.7081V16.5521C8.99931 17.2059 8.76309 17.8376 8.3341 18.3309C7.9051 18.8242 7.31225 19.1458 6.66481 19.2364C6.01738 19.327 5.35902 19.1805 4.81108 18.824C4.26314 18.4674 3.86257 17.9248 3.6832 17.2961L2.1132 11.8001C1.54822 11.1329 1.18054 10.3213 1.05149 9.45663C0.922435 8.59193 1.03713 7.70836 1.38268 6.90526C1.72823 6.10216 2.29094 5.41137 3.00755 4.91052C3.72416 4.40968 4.56626 4.11864 5.4392 4.07012L8.4572 3.90212C9.93382 3.81995 11.3698 3.38846 12.6472 2.64312L14.9912 1.27512C16.3252 0.498125 17.9992 1.45912 17.9992 3.00312ZM4.6332 13.3401L5.6062 16.7471C5.65302 16.912 5.75794 17.0544 5.90157 17.148C6.0452 17.2416 6.21785 17.2801 6.38763 17.2563C6.55741 17.2326 6.71286 17.1482 6.82527 17.0187C6.93768 16.8893 6.99946 16.7236 6.9992 16.5521V13.5421L5.4392 13.4551C5.16772 13.4401 4.89805 13.4016 4.6332 13.3401ZM15.9992 3.00312L13.6542 4.37212C12.2296 5.20257 10.641 5.71241 8.9992 5.86612V11.6851C10.7862 11.9311 12.4872 12.6281 13.9392 13.7161L15.9992 15.2621V3.00312ZM6.9992 5.98612L5.5492 6.06612C4.87464 6.10337 4.23856 6.39215 3.76651 6.87545C3.29446 7.35875 3.02075 8.00145 2.9994 8.6767C2.97805 9.35194 3.21062 10.0107 3.6512 10.5228C4.09177 11.035 4.70834 11.3633 5.3792 11.4431L5.5492 11.4581L6.9992 11.5381V5.98612ZM17.9992 8.26212V10.2621C18.2541 10.2618 18.4992 10.1642 18.6846 9.98928C18.8699 9.81431 18.9814 9.57517 18.9964 9.32073C19.0113 9.06629 18.9285 8.81575 18.7649 8.62029C18.6013 8.42484 18.3693 8.29923 18.1162 8.26912L17.9992 8.26212Z" fill="#409050" stroke="white"/>
</svg>
