<svg width="43" height="43" viewBox="0 0 43 43" fill="none" xmlns="http://www.w3.org/2000/svg">
<path d="M36.2812 7.39063H6.71875C6.18417 7.39062 5.67149 7.60298 5.29349 7.98099C4.91548 8.35899 4.70312 8.87167 4.70312 9.40625V33.5938C4.70312 34.1283 4.91548 34.641 5.29349 35.019C5.67149 35.397 6.18417 35.6094 6.71875 35.6094H8.96785C9.09496 35.6092 9.2194 35.5729 9.32673 35.5049C9.43406 35.4368 9.51988 35.3396 9.57422 35.2247C10.2819 33.7297 11.3996 32.4664 12.7971 31.5817C14.1947 30.6971 15.8147 30.2274 17.4688 30.2274C19.1228 30.2274 20.7428 30.6971 22.1404 31.5817C23.538 32.4664 24.6556 33.7297 25.3633 35.2247C25.4176 35.3396 25.5034 35.4368 25.6108 35.5049C25.7181 35.5729 25.8425 35.6092 25.9696 35.6094H36.2812C36.8158 35.6094 37.3285 35.397 37.7065 35.019C38.0845 34.641 38.2969 34.1283 38.2969 33.5938V9.40625C38.2969 8.87167 38.0845 8.35899 37.7065 7.98099C37.3285 7.60298 36.8158 7.39063 36.2812 7.39063ZM36.9531 33.5938C36.9531 33.7719 36.8823 33.9428 36.7563 34.0688C36.6303 34.1948 36.4594 34.2656 36.2812 34.2656H26.3845C25.1492 31.9444 23.0607 30.1937 20.5594 29.3828C21.6978 28.7058 22.5824 27.6738 23.0774 26.4454C23.5724 25.2169 23.6504 23.8599 23.2994 22.5828C22.9484 21.3057 22.1877 20.1792 21.1344 19.3763C20.081 18.5734 18.7932 18.1385 17.4688 18.1385C16.1443 18.1385 14.8565 18.5734 13.8031 19.3763C12.7498 20.1792 11.9891 21.3057 11.6381 22.5828C11.2871 23.8599 11.3651 25.2169 11.8601 26.4454C12.3551 27.6738 13.2397 28.7058 14.3781 29.3828C11.8768 30.1937 9.78829 31.9444 8.55297 34.2656H6.71875C6.54056 34.2656 6.36966 34.1948 6.24366 34.0688C6.11766 33.9428 6.04688 33.7719 6.04688 33.5938V9.40625C6.04688 9.22806 6.11766 9.05716 6.24366 8.93116C6.36966 8.80516 6.54056 8.73438 6.71875 8.73438H36.2812C36.4594 8.73438 36.6303 8.80516 36.7563 8.93116C36.8823 9.05716 36.9531 9.22806 36.9531 9.40625V33.5938ZM17.4688 28.8906C16.5386 28.8906 15.6293 28.6148 14.8558 28.098C14.0824 27.5812 13.4796 26.8467 13.1236 25.9873C12.7677 25.1279 12.6745 24.1823 12.856 23.27C13.0375 22.3576 13.4854 21.5196 14.1431 20.8619C14.8009 20.2041 15.6389 19.7562 16.5512 19.5747C17.4635 19.3933 18.4092 19.4864 19.2686 19.8424C20.1279 20.1983 20.8625 20.8012 21.3793 21.5746C21.896 22.348 22.1719 23.2573 22.1719 24.1875C22.1719 24.8051 22.0502 25.4167 21.8139 25.9873C21.5775 26.5579 21.2311 27.0764 20.7944 27.5131C20.3576 27.9498 19.8392 28.2963 19.2686 28.5326C18.6979 28.769 18.0864 28.8906 17.4688 28.8906ZM32.9219 13.4375V29.5625C32.9219 29.7407 32.8511 29.9116 32.7251 30.0376C32.5991 30.1636 32.4282 30.2344 32.25 30.2344H29.5625C29.3843 30.2344 29.2134 30.1636 29.0874 30.0376C28.9614 29.9116 28.8906 29.7407 28.8906 29.5625C28.8906 29.3843 28.9614 29.2134 29.0874 29.0874C29.2134 28.9614 29.3843 28.8906 29.5625 28.8906H31.5781V14.1094H11.4219V16.125C11.4219 16.3032 11.3511 16.4741 11.2251 16.6001C11.0991 16.7261 10.9282 16.7969 10.75 16.7969C10.5718 16.7969 10.4009 16.7261 10.2749 16.6001C10.1489 16.4741 10.0781 16.3032 10.0781 16.125V13.4375C10.0781 13.2593 10.1489 13.0884 10.2749 12.9624C10.4009 12.8364 10.5718 12.7656 10.75 12.7656H32.25C32.4282 12.7656 32.5991 12.8364 32.7251 12.9624C32.8511 13.0884 32.9219 13.2593 32.9219 13.4375Z" fill="#409050"/>
</svg>
