<svg width="43" height="43" viewBox="0 0 43 43" fill="none" xmlns="http://www.w3.org/2000/svg">
<path d="M29.5625 36.5231L26.0822 33.0428L24.1875 34.9375L29.5625 40.3125L40.3125 29.5625L38.4178 27.6678L29.5625 36.5231ZM12.0938 22.8438H21.5V25.5312H12.0938V22.8438ZM12.0938 16.125H28.2188V18.8125H12.0938V16.125ZM12.0938 9.40625H28.2188V12.0938H12.0938V9.40625Z" fill="#409050"/>
<path d="M21.5 40.3125H8.0625C6.58034 40.3125 5.375 39.1072 5.375 37.625V5.375C5.375 3.89284 6.58034 2.6875 8.0625 2.6875H32.25C33.7322 2.6875 34.9375 3.89284 34.9375 5.375V25.5312H32.25V5.375H8.0625V37.625H21.5V40.3125Z" fill="#409050"/>
<path d="M29.5625 36.5231L26.0822 33.0428L24.1875 34.9375L29.5625 40.3125L40.3125 29.5625L38.4178 27.6678L29.5625 36.5231ZM12.0938 22.8438H21.5V25.5312H12.0938V22.8438ZM12.0938 16.125H28.2188V18.8125H12.0938V16.125ZM12.0938 9.40625H28.2188V12.0938H12.0938V9.40625Z" stroke="white"/>
<path d="M21.5 40.3125H8.0625C6.58034 40.3125 5.375 39.1072 5.375 37.625V5.375C5.375 3.89284 6.58034 2.6875 8.0625 2.6875H32.25C33.7322 2.6875 34.9375 3.89284 34.9375 5.375V25.5312H32.25V5.375H8.0625V37.625H21.5V40.3125Z" stroke="white"/>
</svg>
