<svg width="43" height="43" viewBox="0 0 43 43" fill="none" xmlns="http://www.w3.org/2000/svg">
<path d="M35.1821 14.3064V9.82726C35.1821 9.35208 34.9933 8.89636 34.6573 8.56036C34.3213 8.22436 33.8656 8.03559 33.3904 8.03559H27.1196M36.5384 5.08472H6.97587C6.50069 5.08472 6.04497 5.27348 5.70897 5.60948C5.37297 5.94549 5.1842 6.4012 5.1842 6.87638V36.4389C5.1842 36.9141 5.37297 37.3698 5.70897 37.7058C6.04497 38.0418 6.50069 38.2305 6.97587 38.2305H36.5384C37.0135 38.2305 37.4693 38.0418 37.8053 37.7058C38.1413 37.3698 38.33 36.9141 38.33 36.4389V6.87638C38.33 6.4012 38.1413 5.94549 37.8053 5.60948C37.4693 5.27348 37.0135 5.08472 36.5384 5.08472Z" stroke="#409050" stroke-linecap="round" stroke-linejoin="round"/>
<path d="M8.0625 32.8824V34.7502C8.06238 34.8484 8.08162 34.9457 8.11911 35.0364C8.15661 35.1272 8.21162 35.2096 8.28101 35.2791C8.3504 35.3486 8.4328 35.4037 8.52351 35.4413C8.61421 35.4789 8.71144 35.4983 8.80963 35.4983H11.4255M29.3923 21.6791L15.9817 29.4218V13.9355L29.3923 21.6791Z" stroke="#409050" stroke-linecap="round" stroke-linejoin="round"/>
</svg>
