<svg width="15" height="20" viewBox="0 0 15 20" fill="none" xmlns="http://www.w3.org/2000/svg">
<path d="M7.5 0.15625C4.73641 0.15625 2.46875 2.42391 2.46875 5.1875V7.25391C1.78643 7.92091 1.24422 8.7175 0.873943 9.5969C0.503667 10.4763 0.312785 11.4208 0.3125 12.375C0.3125 16.3353 3.53969 19.5625 7.5 19.5625C11.4603 19.5625 14.6875 16.3353 14.6875 12.375C14.6872 11.4208 14.4963 10.4763 14.1261 9.5969C13.7558 8.7175 13.2136 7.92091 12.5312 7.25391V5.1875C12.5312 2.42391 10.2636 0.15625 7.5 0.15625ZM7.5 1.59375C9.48016 1.59375 11.0938 3.20734 11.0938 5.1875V6.17578C10.0336 5.55766 8.81244 5.1875 7.5 5.1875C6.18756 5.1875 4.96641 5.55837 3.90625 6.17578V5.1875C3.90625 3.20734 5.51984 1.59375 7.5 1.59375ZM7.5 6.625C10.6841 6.625 13.25 9.19094 13.25 12.375C13.25 15.5591 10.6841 18.125 7.5 18.125C4.31594 18.125 1.75 15.5591 1.75 12.375C1.75 9.19094 4.31594 6.625 7.5 6.625ZM7.5 10.9375C7.11875 10.9375 6.75312 11.089 6.48353 11.3585C6.21395 11.6281 6.0625 11.9938 6.0625 12.375C6.0625 12.9069 6.35216 13.3618 6.78125 13.6112V15.9688H8.21875V13.6112C8.64784 13.3618 8.9375 12.9069 8.9375 12.375C8.9375 11.9938 8.78605 11.6281 8.51647 11.3585C8.24688 11.089 7.88125 10.9375 7.5 10.9375Z" fill="black" fill-opacity="0.8"/>
</svg>
