<svg width="106" height="116" viewBox="0 0 106 116" fill="none" xmlns="http://www.w3.org/2000/svg">
<g filter="url(#filter0_d_13_1859)">
<path d="M53 16L89.3731 37V79L53 100L16.6269 79V37L53 16Z" fill="#4A9B5A"/>
<path d="M18.453 38.0543L53 18.1086L87.547 38.0543V77.9457L53 97.8914L18.453 77.9457V38.0543Z" stroke="white" stroke-width="3.65217"/>
</g>
<path d="M46.8059 52.9529H39.9691V56.5613C40.2645 56.1955 40.6865 55.9001 41.2351 55.675C41.7838 55.4358 42.3676 55.3163 42.9866 55.3163C44.112 55.3163 45.0334 55.5625 45.7509 56.0548C46.4683 56.5472 46.9888 57.1802 47.3124 57.954C47.6359 58.7136 47.7977 59.5295 47.7977 60.4017C47.7977 62.0195 47.3335 63.3208 46.405 64.3055C45.4906 65.2902 44.1823 65.7826 42.4801 65.7826C40.8764 65.7826 39.5963 65.3817 38.6397 64.5798C37.6831 63.778 37.1415 62.7299 37.0149 61.4357H39.8847C40.0113 61.9984 40.2926 62.4486 40.7287 62.7862C41.1789 63.1238 41.7486 63.2926 42.4379 63.2926C43.2679 63.2926 43.8939 63.0324 44.316 62.5119C44.738 61.9914 44.949 61.3021 44.949 60.4439C44.949 59.5717 44.7309 58.9106 44.2949 58.4604C43.8728 57.9962 43.2468 57.764 42.4168 57.764C41.826 57.764 41.3336 57.9118 40.9397 58.2072C40.5458 58.5026 40.2645 58.8965 40.0957 59.3889H37.2681V50.3574H46.8059V52.9529ZM49.9195 62.7862V60.465L56.8197 50.5896H60.2593V60.2118H62.1162V62.7862H60.2593V65.7826H57.305V62.7862H49.9195ZM57.495 53.7548L53.1692 60.2118H57.495V53.7548ZM63.3291 59.0869C63.3291 58.4701 63.5076 57.9872 63.8647 57.6382C64.2299 57.2893 64.6966 57.1148 65.2647 57.1148C65.8328 57.1148 66.2954 57.2893 66.6525 57.6382C67.0178 57.9872 67.2004 58.4701 67.2004 59.0869C67.2004 59.7119 67.0178 60.1988 66.6525 60.5478C66.2954 60.8968 65.8328 61.0713 65.2647 61.0713C64.6966 61.0713 64.2299 60.8968 63.8647 60.5478C63.5076 60.1988 63.3291 59.7119 63.3291 59.0869ZM71.1447 57.2609L66.3604 65.7826H64.7047L69.4769 57.2609H71.1447ZM65.2525 58.1374C64.8062 58.1374 64.583 58.4539 64.583 59.0869C64.583 59.7281 64.8062 60.0487 65.2525 60.0487C65.4717 60.0487 65.6421 59.9716 65.7638 59.8174C65.8856 59.6551 65.9465 59.4116 65.9465 59.0869C65.9465 58.4539 65.7152 58.1374 65.2525 58.1374ZM68.6734 63.9443C68.6734 63.3194 68.852 62.8365 69.2091 62.4956C69.5743 62.1467 70.041 61.9722 70.6091 61.9722C71.1772 61.9722 71.6357 62.1467 71.9847 62.4956C72.3418 62.8365 72.5204 63.3194 72.5204 63.9443C72.5204 64.5693 72.3418 65.0562 71.9847 65.4052C71.6357 65.7542 71.1772 65.9287 70.6091 65.9287C70.0328 65.9287 69.5662 65.7542 69.2091 65.4052C68.852 65.0562 68.6734 64.5693 68.6734 63.9443ZM70.5969 62.9948C70.1343 62.9948 69.903 63.3113 69.903 63.9443C69.903 64.5855 70.1343 64.9061 70.5969 64.9061C71.0514 64.9061 71.2786 64.5855 71.2786 63.9443C71.2786 63.3113 71.0514 62.9948 70.5969 62.9948Z" fill="white"/>
<defs>
<filter id="filter0_d_13_1859" x="0.800867" y="0.173914" width="104.398" height="115.652" filterUnits="userSpaceOnUse" color-interpolation-filters="sRGB">
<feFlood flood-opacity="0" result="BackgroundImageFix"/>
<feColorMatrix in="SourceAlpha" type="matrix" values="0 0 0 0 0 0 0 0 0 0 0 0 0 0 0 0 0 0 127 0" result="hardAlpha"/>
<feOffset/>
<feGaussianBlur stdDeviation="7.91304"/>
<feComposite in2="hardAlpha" operator="out"/>
<feColorMatrix type="matrix" values="0 0 0 0 0.67349 0 0 0 0 0.8375 0 0 0 0 0.705887 0 0 0 0.97 0"/>
<feBlend mode="normal" in2="BackgroundImageFix" result="effect1_dropShadow_13_1859"/>
<feBlend mode="normal" in="SourceGraphic" in2="effect1_dropShadow_13_1859" result="shape"/>
</filter>
</defs>
</svg>
