<svg width="106" height="116" viewBox="0 0 106 116" fill="none" xmlns="http://www.w3.org/2000/svg">
<g filter="url(#filter0_d_13_1870)">
<path d="M53 16L89.3731 37V79L53 100L16.6269 79V37L53 16Z" fill="#D80000"/>
<path d="M18.453 38.0543L53 18.1086L87.547 38.0543V77.9457L53 97.8914L18.453 77.9457V38.0543Z" stroke="white" stroke-width="3.65217"/>
</g>
<path d="M39.7597 53.1217V50.3996H44.8451V65.7826H41.8065V53.1217H39.7597ZM48.692 62.4486C50.0425 61.3232 51.1187 60.3877 51.9205 59.6421C52.7224 58.8824 53.3906 58.0946 53.9252 57.2787C54.4597 56.4628 54.727 55.6609 54.727 54.8731C54.727 54.1557 54.5582 53.593 54.2206 53.185C53.8829 52.7771 53.3624 52.5731 52.6591 52.5731C51.9557 52.5731 51.4141 52.8122 51.0343 53.2905C50.6544 53.7548 50.4575 54.3948 50.4434 55.2108H47.5736C47.6299 53.5227 48.1293 52.2425 49.0718 51.3703C50.0284 50.4981 51.2382 50.062 52.7013 50.062C54.305 50.062 55.5359 50.4911 56.394 51.3492C57.2521 52.1933 57.6812 53.3116 57.6812 54.7043C57.6812 55.8016 57.3858 56.8496 56.7949 57.8484C56.2041 58.8473 55.5289 59.7194 54.7692 60.465C54.0096 61.1965 53.0178 62.0828 51.7939 63.1238H58.0188V65.5716H47.5947V63.377L48.692 62.4486ZM59.2124 59.0869C59.2124 58.4701 59.391 57.9872 59.7481 57.6382C60.1133 57.2893 60.58 57.1148 61.1481 57.1148C61.7162 57.1148 62.1788 57.2893 62.5359 57.6382C62.9011 57.9872 63.0837 58.4701 63.0837 59.0869C63.0837 59.7119 62.9011 60.1988 62.5359 60.5478C62.1788 60.8968 61.7162 61.0713 61.1481 61.0713C60.58 61.0713 60.1133 60.8968 59.7481 60.5478C59.391 60.1988 59.2124 59.7119 59.2124 59.0869ZM67.0281 57.2609L62.2437 65.7826H60.5881L65.3603 57.2609H67.0281ZM61.1359 58.1374C60.6895 58.1374 60.4663 58.4539 60.4663 59.0869C60.4663 59.7281 60.6895 60.0487 61.1359 60.0487C61.355 60.0487 61.5255 59.9716 61.6472 59.8174C61.769 59.6551 61.8298 59.4116 61.8298 59.0869C61.8298 58.4539 61.5985 58.1374 61.1359 58.1374ZM64.5568 63.9443C64.5568 63.3194 64.7353 62.8365 65.0924 62.4956C65.4577 62.1467 65.9243 61.9722 66.4924 61.9722C67.0605 61.9722 67.5191 62.1467 67.8681 62.4956C68.2252 62.8365 68.4037 63.3194 68.4037 63.9443C68.4037 64.5693 68.2252 65.0562 67.8681 65.4052C67.5191 65.7542 67.0605 65.9287 66.4924 65.9287C65.9162 65.9287 65.4495 65.7542 65.0924 65.4052C64.7353 65.0562 64.5568 64.5693 64.5568 63.9443ZM66.4803 62.9948C66.0177 62.9948 65.7863 63.3113 65.7863 63.9443C65.7863 64.5855 66.0177 64.9061 66.4803 64.9061C66.9348 64.9061 67.162 64.5855 67.162 63.9443C67.162 63.3113 66.9348 62.9948 66.4803 62.9948Z" fill="white"/>
<defs>
<filter id="filter0_d_13_1870" x="0.800867" y="0.173914" width="104.398" height="115.652" filterUnits="userSpaceOnUse" color-interpolation-filters="sRGB">
<feFlood flood-opacity="0" result="BackgroundImageFix"/>
<feColorMatrix in="SourceAlpha" type="matrix" values="0 0 0 0 0 0 0 0 0 0 0 0 0 0 0 0 0 0 127 0" result="hardAlpha"/>
<feOffset/>
<feGaussianBlur stdDeviation="7.91304"/>
<feComposite in2="hardAlpha" operator="out"/>
<feColorMatrix type="matrix" values="0 0 0 0 0.858333 0 0 0 0 0 0 0 0 0 0 0 0 0 0.25 0"/>
<feBlend mode="normal" in2="BackgroundImageFix" result="effect1_dropShadow_13_1870"/>
<feBlend mode="normal" in="SourceGraphic" in2="effect1_dropShadow_13_1870" result="shape"/>
</filter>
</defs>
</svg>
