<svg width="68" height="23" viewBox="0 0 68 23" fill="none" xmlns="http://www.w3.org/2000/svg">
<path d="M0 11.5C0 5.14873 5.14873 0 11.5 0H56.5C62.8513 0 68 5.14873 68 11.5C68 17.8513 62.8513 23 56.5 23H11.5C5.14873 23 0 17.8513 0 11.5Z" fill="#4A9B5A"/>
<path d="M20.61 10.12C20.61 10.4733 20.5267 10.8067 20.36 11.12C20.1933 11.4333 19.9267 11.69 19.56 11.89C19.1933 12.0833 18.7233 12.18 18.15 12.18H16.89V15H15.75V8.05H18.15C18.6833 8.05 19.1333 8.14333 19.5 8.33C19.8733 8.51 20.15 8.75667 20.33 9.07C20.5167 9.38333 20.61 9.73333 20.61 10.12ZM18.15 11.25C18.5833 11.25 18.9067 11.1533 19.12 10.96C19.3333 10.76 19.44 10.48 19.44 10.12C19.44 9.36 19.01 8.98 18.15 8.98H16.89V11.25H18.15ZM25.8873 13.58H22.9773L22.4773 15H21.2873L23.7773 8.04H25.0973L27.5873 15H26.3873L25.8873 13.58ZM25.5673 12.65L24.4373 9.42L23.2973 12.65H25.5673ZM30.9599 15.07C30.4933 15.07 30.0733 14.99 29.6999 14.83C29.3266 14.6633 29.0333 14.43 28.8199 14.13C28.6066 13.83 28.4999 13.48 28.4999 13.08H29.7199C29.7466 13.38 29.8633 13.6267 30.0699 13.82C30.2833 14.0133 30.5799 14.11 30.9599 14.11C31.3533 14.11 31.6599 14.0167 31.8799 13.83C32.0999 13.6367 32.2099 13.39 32.2099 13.09C32.2099 12.8567 32.1399 12.6667 31.9999 12.52C31.8666 12.3733 31.6966 12.26 31.4899 12.18C31.2899 12.1 31.0099 12.0133 30.6499 11.92C30.1966 11.8 29.8266 11.68 29.5399 11.56C29.2599 11.4333 29.0199 11.24 28.8199 10.98C28.6199 10.72 28.5199 10.3733 28.5199 9.94C28.5199 9.54 28.6199 9.19 28.8199 8.89C29.0199 8.59 29.2999 8.36 29.6599 8.2C30.0199 8.04 30.4366 7.96 30.9099 7.96C31.5833 7.96 32.1333 8.13 32.5599 8.47C32.9933 8.80333 33.2333 9.26333 33.2799 9.85H32.0199C31.9999 9.59667 31.8799 9.38 31.6599 9.2C31.4399 9.02 31.1499 8.93 30.7899 8.93C30.4633 8.93 30.1966 9.01333 29.9899 9.18C29.7833 9.34667 29.6799 9.58667 29.6799 9.9C29.6799 10.1133 29.7433 10.29 29.8699 10.43C30.0033 10.5633 30.1699 10.67 30.3699 10.75C30.5699 10.83 30.8433 10.9167 31.1899 11.01C31.6499 11.1367 32.0233 11.2633 32.3099 11.39C32.6033 11.5167 32.8499 11.7133 33.0499 11.98C33.2566 12.24 33.3599 12.59 33.3599 13.03C33.3599 13.3833 33.2633 13.7167 33.0699 14.03C32.8833 14.3433 32.6066 14.5967 32.2399 14.79C31.8799 14.9767 31.4533 15.07 30.9599 15.07ZM36.9951 15.07C36.5284 15.07 36.1084 14.99 35.7351 14.83C35.3617 14.6633 35.0684 14.43 34.8551 14.13C34.6417 13.83 34.5351 13.48 34.5351 13.08H35.7551C35.7817 13.38 35.8984 13.6267 36.1051 13.82C36.3184 14.0133 36.6151 14.11 36.9951 14.11C37.3884 14.11 37.6951 14.0167 37.9151 13.83C38.1351 13.6367 38.2451 13.39 38.2451 13.09C38.2451 12.8567 38.1751 12.6667 38.0351 12.52C37.9017 12.3733 37.7317 12.26 37.5251 12.18C37.3251 12.1 37.0451 12.0133 36.6851 11.92C36.2317 11.8 35.8617 11.68 35.5751 11.56C35.2951 11.4333 35.0551 11.24 34.8551 10.98C34.6551 10.72 34.5551 10.3733 34.5551 9.94C34.5551 9.54 34.6551 9.19 34.8551 8.89C35.0551 8.59 35.3351 8.36 35.6951 8.2C36.0551 8.04 36.4717 7.96 36.9451 7.96C37.6184 7.96 38.1684 8.13 38.5951 8.47C39.0284 8.80333 39.2684 9.26333 39.3151 9.85H38.0551C38.0351 9.59667 37.9151 9.38 37.6951 9.2C37.4751 9.02 37.1851 8.93 36.8251 8.93C36.4984 8.93 36.2317 9.01333 36.0251 9.18C35.8184 9.34667 35.7151 9.58667 35.7151 9.9C35.7151 10.1133 35.7784 10.29 35.9051 10.43C36.0384 10.5633 36.2051 10.67 36.4051 10.75C36.6051 10.83 36.8784 10.9167 37.2251 11.01C37.6851 11.1367 38.0584 11.2633 38.3451 11.39C38.6384 11.5167 38.8851 11.7133 39.0851 11.98C39.2917 12.24 39.3951 12.59 39.3951 13.03C39.3951 13.3833 39.2984 13.7167 39.1051 14.03C38.9184 14.3433 38.6417 14.5967 38.2751 14.79C37.9151 14.9767 37.4884 15.07 36.9951 15.07ZM41.8802 8.97V11.01H44.2802V11.94H41.8802V14.07H44.5802V15H40.7402V8.04H44.5802V8.97H41.8802ZM48.2544 8.05C48.9944 8.05 49.641 8.19333 50.1944 8.48C50.7544 8.76 51.1844 9.16667 51.4844 9.7C51.791 10.2267 51.9444 10.8433 51.9444 11.55C51.9444 12.2567 51.791 12.87 51.4844 13.39C51.1844 13.91 50.7544 14.31 50.1944 14.59C49.641 14.8633 48.9944 15 48.2544 15H45.9844V8.05H48.2544ZM48.2544 14.07C49.0677 14.07 49.691 13.85 50.1244 13.41C50.5577 12.97 50.7744 12.35 50.7744 11.55C50.7744 10.7433 50.5577 10.1133 50.1244 9.66C49.691 9.20667 49.0677 8.98 48.2544 8.98H47.1244V14.07H48.2544Z" fill="white"/>
</svg>
