<svg width="68" height="23" viewBox="0 0 68 23" fill="none" xmlns="http://www.w3.org/2000/svg">
<path d="M0 11.5C0 5.14873 5.14873 0 11.5 0H56.5C62.8513 0 68 5.14873 68 11.5C68 17.8513 62.8513 23 56.5 23H11.5C5.14873 23 0 17.8513 0 11.5Z" fill="#D80000"/>
<path d="M23.0734 8.05V8.98H20.1234V11.03H22.4234V11.96H20.1234V15H18.9834V8.05H23.0734ZM28.3199 13.58H25.4099L24.9099 15H23.7199L26.2099 8.04H27.5299L30.0199 15H28.8199L28.3199 13.58ZM27.9999 12.65L26.8699 9.42L25.7299 12.65H27.9999ZM32.2425 8.05V15H31.1025V8.05H32.2425ZM34.8793 14.08H37.2293V15H33.7393V8.05H34.8793V14.08ZM39.3226 8.97V11.01H41.7226V11.94H39.3226V14.07H42.0226V15H38.1826V8.04H42.0226V8.97H39.3226ZM45.6968 8.05C46.4368 8.05 47.0834 8.19333 47.6368 8.48C48.1968 8.76 48.6268 9.16667 48.9268 9.7C49.2334 10.2267 49.3868 10.8433 49.3868 11.55C49.3868 12.2567 49.2334 12.87 48.9268 13.39C48.6268 13.91 48.1968 14.31 47.6368 14.59C47.0834 14.8633 46.4368 15 45.6968 15H43.4268V8.05H45.6968ZM45.6968 14.07C46.5101 14.07 47.1334 13.85 47.5668 13.41C48.0001 12.97 48.2168 12.35 48.2168 11.55C48.2168 10.7433 48.0001 10.1133 47.5668 9.66C47.1334 9.20667 46.5101 8.98 45.6968 8.98H44.5668V14.07H45.6968Z" fill="white"/>
</svg>
