<svg width="25" height="19" viewBox="0 0 25 19" fill="none" xmlns="http://www.w3.org/2000/svg">
<path d="M22.5732 15.0488C22.5732 15.4479 22.4147 15.8307 22.1325 16.1129C21.8503 16.3952 21.4675 16.5537 21.0684 16.5537H3.00977C2.61065 16.5537 2.22787 16.3952 1.94565 16.1129C1.66343 15.8307 1.50488 15.4479 1.50488 15.0488V6.01953C1.50488 5.62041 1.66343 5.23764 1.94565 4.95542C2.22787 4.6732 2.61065 4.51465 3.00977 4.51465H4.77349C5.97023 4.51399 7.11774 4.03821 7.96384 3.19186L9.21289 1.94581C9.49431 1.66431 9.87579 1.50576 10.2738 1.50488H13.8013C14.2004 1.50497 14.5831 1.66357 14.8652 1.94581L16.1113 3.19186C16.5306 3.61129 17.0284 3.94399 17.5763 4.17096C18.1243 4.39793 18.7116 4.51472 19.3046 4.51465H21.0684C21.4675 4.51465 21.8503 4.6732 22.1325 4.95542C22.4147 5.23764 22.5732 5.62041 22.5732 6.01953V15.0488ZM3.00977 3.00977C2.21153 3.00977 1.44598 3.32686 0.88154 3.89131C0.317099 4.45575 0 5.22129 0 6.01953L0 15.0488C0 15.8471 0.317099 16.6126 0.88154 17.1771C1.44598 17.7415 2.21153 18.0586 3.00977 18.0586H21.0684C21.8666 18.0586 22.6321 17.7415 23.1966 17.1771C23.761 16.6126 24.0781 15.8471 24.0781 15.0488V6.01953C24.0781 5.22129 23.761 4.45575 23.1966 3.89131C22.6321 3.32686 21.8666 3.00977 21.0684 3.00977H19.3046C18.5065 3.0096 17.741 2.69238 17.1767 2.1279L15.9307 0.881861C15.3664 0.317382 14.601 0.000170465 13.8028 0H10.2753C9.47717 0.000170465 8.71174 0.317382 8.14744 0.881861L6.90139 2.1279C6.33708 2.69238 5.57166 3.0096 4.77349 3.00977H3.00977Z" fill="#4A9B5A"/>
<path d="M12.0391 13.5439C11.0413 13.5439 10.0843 13.1476 9.37878 12.442C8.67323 11.7365 8.27686 10.7795 8.27686 9.78174C8.27686 8.78394 8.67323 7.82701 9.37878 7.12146C10.0843 6.41591 11.0413 6.01953 12.0391 6.01953C13.0369 6.01953 13.9938 6.41591 14.6993 7.12146C15.4049 7.82701 15.8013 8.78394 15.8013 9.78174C15.8013 10.7795 15.4049 11.7365 14.6993 12.442C13.9938 13.1476 13.0369 13.5439 12.0391 13.5439ZM12.0391 15.0488C13.436 15.0488 14.7757 14.4939 15.7635 13.5061C16.7512 12.5184 17.3062 11.1787 17.3062 9.78174C17.3062 8.38482 16.7512 7.04511 15.7635 6.05734C14.7757 5.06957 13.436 4.51465 12.0391 4.51465C10.6421 4.51465 9.30244 5.06957 8.31467 6.05734C7.3269 7.04511 6.77197 8.38482 6.77197 9.78174C6.77197 11.1787 7.3269 12.5184 8.31467 13.5061C9.30244 14.4939 10.6421 15.0488 12.0391 15.0488ZM4.51465 6.77197C4.51465 6.97153 4.43537 7.16292 4.29426 7.30403C4.15315 7.44514 3.96177 7.52441 3.76221 7.52441C3.56265 7.52441 3.37126 7.44514 3.23015 7.30403C3.08904 7.16292 3.00977 6.97153 3.00977 6.77197C3.00977 6.57241 3.08904 6.38103 3.23015 6.23992C3.37126 6.09881 3.56265 6.01953 3.76221 6.01953C3.96177 6.01953 4.15315 6.09881 4.29426 6.23992C4.43537 6.38103 4.51465 6.57241 4.51465 6.77197Z" fill="#4A9B5A"/>
</svg>
