<svg width="37" height="43" viewBox="0 0 37 43" fill="none" xmlns="http://www.w3.org/2000/svg">
<path d="M2.69744 13.9085C1.20776 13.9078 0.000367548 15.0984 0 16.5627L0.00183778 27.6756C0.00159621 28.0243 0.0712284 28.3696 0.206753 28.6918C0.342277 29.014 0.541035 29.3068 0.791661 29.5534C1.04229 29.7999 1.33986 29.9955 1.66738 30.1289C1.99489 30.2622 2.34592 30.3308 2.70038 30.3306C3.0548 30.331 3.40581 30.2625 3.7333 30.1293C4.0608 29.996 4.35834 29.8004 4.60888 29.5538C4.85942 29.3072 5.05804 29.0144 5.19336 28.6922C5.32867 28.37 5.39803 28.0246 5.39745 27.676V16.5613C5.39667 15.8574 5.11185 15.1826 4.60557 14.6852C4.0993 14.1878 3.41298 13.9084 2.69744 13.9085ZM24.4534 3.92873L26.3363 0.546338C26.3843 0.460534 26.3957 0.359521 26.3681 0.265446C26.3404 0.171371 26.276 0.0919121 26.1889 0.0444924C26.1017 -0.00193402 25.9993 -0.0125174 25.9041 0.0150524C25.8089 0.0426223 25.7287 0.106106 25.681 0.191647L23.7789 3.60947C22.1786 2.90877 20.3875 2.51612 18.4925 2.51793C16.6025 2.51612 14.8122 2.90769 13.2185 3.60441L11.3142 0.195263C11.291 0.152709 11.2594 0.115115 11.2213 0.0846588C11.1832 0.054203 11.1393 0.0314906 11.0922 0.0178373C11.0451 0.00418406 10.9957 -0.00013866 10.9468 0.00511949C10.898 0.0103776 10.8508 0.0251122 10.8078 0.0484696C10.7644 0.0712894 10.726 0.102394 10.695 0.139965C10.664 0.177535 10.6408 0.220816 10.627 0.267276C10.6132 0.313736 10.6089 0.362443 10.6145 0.410545C10.62 0.458648 10.6352 0.505181 10.6593 0.547423L12.543 3.92765C8.84175 5.80523 6.34095 9.38106 6.34315 13.4866L30.6447 13.4837C30.6458 9.37961 28.1494 5.81101 24.4534 3.92873ZM12.9653 9.15581C12.695 9.15566 12.4359 9.04991 12.2449 8.86182C12.0539 8.67373 11.9466 8.4187 11.9468 8.15284C11.9469 7.88698 12.0544 7.63207 12.2457 7.44418C12.4369 7.25629 12.6961 7.15081 12.9664 7.15096C13.2367 7.15143 13.4958 7.25725 13.6869 7.44522C13.8781 7.6332 13.9857 7.88803 13.9863 8.15392C13.9859 8.41996 13.8781 8.67495 13.6867 8.86283C13.4952 9.05071 13.2357 9.15609 12.9653 9.15581ZM24.0311 9.15364C23.8973 9.15373 23.7648 9.12788 23.6411 9.07757C23.5175 9.02726 23.4052 8.95347 23.3105 8.86043C23.2159 8.76738 23.1409 8.6569 23.0897 8.5353C23.0385 8.4137 23.0122 8.28337 23.0122 8.15175C23.0137 7.88612 23.1214 7.63174 23.3122 7.44373C23.503 7.25573 23.7614 7.14924 24.0314 7.14734C24.3012 7.14953 24.5593 7.25622 24.7497 7.44431C24.94 7.63239 25.0474 7.8867 25.0484 8.15212C25.0486 8.28362 25.0224 8.41386 24.9713 8.53538C24.9202 8.65691 24.8453 8.76734 24.7508 8.86036C24.6563 8.95338 24.5441 9.02716 24.4206 9.07748C24.2971 9.12781 24.1647 9.15368 24.0311 9.15364ZM6.44239 14.41L6.44643 31.6329C6.446 32.0049 6.52016 32.3733 6.66468 32.717C6.80919 33.0608 7.02122 33.3731 7.28862 33.6361C7.55602 33.8991 7.87353 34.1076 8.22298 34.2497C8.57242 34.3919 8.94694 34.4648 9.32507 34.4643L11.2852 34.465L11.2874 40.3454C11.287 41.8097 12.497 43 13.9834 43C15.4742 43 16.6819 41.8087 16.6823 40.3436L16.6808 34.4647L20.3229 34.4636L20.3243 40.3436C20.3243 41.8069 21.5347 42.9996 23.0214 42.9967C24.5122 42.9978 25.7207 41.8065 25.7203 40.3414L25.7185 34.4628L27.6856 34.4614C28.0638 34.4614 28.4382 34.3882 28.7876 34.2459C29.1371 34.1036 29.4545 33.895 29.722 33.6319C29.9894 33.3689 30.2016 33.0567 30.3463 32.713C30.4911 32.3693 30.5656 32.0009 30.5657 31.6289L30.5624 14.406L6.44239 14.41ZM36.9982 16.5587C36.9982 16.2102 36.9284 15.8651 36.7929 15.5431C36.6573 15.2211 36.4585 14.9285 36.208 14.6821C35.9574 14.4357 35.6599 14.2402 35.3325 14.1069C35.0052 13.9736 34.6543 13.9051 34.3 13.9053C32.8103 13.9038 31.6033 15.0937 31.6033 16.5598L31.6055 27.6735C31.6052 28.022 31.6749 28.3672 31.8103 28.6892C31.9458 29.0112 32.1445 29.3039 32.395 29.5503C32.6455 29.7967 32.943 29.9922 33.2704 30.1255C33.5978 30.2587 33.9486 30.3272 34.3029 30.327C34.6573 30.327 35.0082 30.2584 35.3355 30.1249C35.6629 29.9915 35.9603 29.7959 36.2108 29.5493C36.4613 29.3028 36.6599 29.0101 36.7953 28.6879C36.9307 28.3658 37.0003 28.0206 37 27.672L36.9982 16.5587Z" fill="#A4C439"/>
</svg>
