<svg width="42" height="34" viewBox="0 0 42 34" fill="none" xmlns="http://www.w3.org/2000/svg">
<path d="M41 31V3C41 1.89543 40.1046 1 39 1H3C1.89543 1 1 1.89543 1 3V31C1 32.1046 1.89543 33 3 33H39C40.1046 33 41 32.1046 41 31Z" fill="#2F88FF" stroke="black" stroke-linecap="round" stroke-linejoin="round"/>
<path d="M21.9999 1C21.9999 1 16.9999 11 17.9999 18H23.9999L24.9999 33" stroke="white" stroke-linecap="round" stroke-linejoin="round"/>
<path d="M31 33H19" stroke="black" stroke-linecap="round" stroke-linejoin="round"/>
<path d="M27 1H15" stroke="black" stroke-linecap="round" stroke-linejoin="round"/>
<path d="M31 9V11" stroke="white" stroke-linecap="round" stroke-linejoin="round"/>
<path d="M11 9V11" stroke="white" stroke-linecap="round" stroke-linejoin="round"/>
<path d="M10 22C10 22 14.1905 25 21 25C27.8095 25 32 22 32 22" stroke="white" stroke-linecap="round" stroke-linejoin="round"/>
</svg>
