<svg width="43" height="52" viewBox="0 0 43 52" fill="none" xmlns="http://www.w3.org/2000/svg">
<path d="M27.9328 0.91295V2.74398e-10C27.8026 0.00012301 27.6739 0.0271845 27.5551 0.0794266L27.9328 0.91295ZM31.3669 0.91295L32.2948 0.90656C32.2931 0.665539 32.1946 0.434965 32.0208 0.265133C31.847 0.0953017 31.6119 -5.90494e-06 31.3669 2.74398e-10V0.91295ZM28.7772 7.52271L29.4824 8.1143L29.487 8.10882L28.7762 7.5218L28.7772 7.52271ZM21.4467 11.0923L20.5253 11.2019C20.5511 11.4106 20.6493 11.6041 20.8033 11.7498C20.9573 11.8955 21.1577 11.9845 21.3706 12.0016L21.4458 11.0914L21.4467 11.0923ZM24.1395 3.59702L24.8354 4.2014L24.8401 4.19683L24.1395 3.59794V3.59702ZM27.4874 1.11745L27.0791 0.297622L27.0754 0.299448L27.4874 1.11745ZM2.92758 19.087L2.09061 18.6936C2.02306 18.8327 1.99243 18.9864 2.00158 19.1403C2.01073 19.2943 2.05936 19.4434 2.14293 19.5739C2.2265 19.7043 2.34229 19.8118 2.47949 19.8863C2.6167 19.9608 2.77086 19.9999 2.92758 20V19.087ZM3.50288 18.0299L4.30088 18.4973L4.30459 18.49L3.50288 18.0299ZM13.6504 12.1002V11.1873H13.6356L13.6504 12.1002ZM18.1619 13.1364L18.4885 12.2819H18.4867L18.1619 13.1364ZM25.7076 12.9511L25.3931 12.0929L25.3875 12.0948L25.7076 12.9511ZM31.1016 12.0071L31.0227 12.9164H31.0264L31.1016 12.0071ZM40.0716 16.6668L40.5541 17.4465C40.6626 17.3816 40.7565 17.2954 40.8298 17.1934C40.9031 17.0914 40.9543 16.9757 40.9803 16.8534C41.0063 16.7311 41.0066 16.6048 40.981 16.4824C40.9554 16.3601 40.9045 16.2441 40.8316 16.1419L40.0716 16.6668ZM37.1023 19.087V20C37.2358 20.0001 37.3678 19.9718 37.4892 19.9172C37.6105 19.8625 37.7185 19.7827 37.8057 19.6832L37.1023 19.087ZM27.9328 1.8259H31.3669V2.74398e-10H27.9328V1.8259ZM30.439 0.919341V0.983247H32.2948V0.90656L30.439 0.919341ZM30.439 0.983247C30.439 3.07664 29.6707 5.05592 28.0664 6.93477L29.487 8.10882C31.3335 5.94787 32.2948 3.56324 32.2948 0.983247H30.439ZM28.071 6.92929C26.1039 9.19889 23.8518 10.3684 21.5219 10.1821L21.3706 12.0016C24.5023 12.2527 27.286 10.6477 29.4824 8.1143L28.071 6.92929ZM22.3672 10.981C22.3351 10.7238 22.319 10.465 22.3189 10.2059H20.4631C20.4631 10.5555 20.4863 10.8878 20.5253 11.2019L22.3672 10.981ZM22.3189 10.2059C22.3189 8.21747 23.2032 6.02456 24.8354 4.2014L23.4436 2.99448C21.5599 5.09791 20.4631 7.70621 20.4631 10.2059H22.3189ZM24.8401 4.19683C25.6269 3.30488 26.6402 2.54896 27.8994 1.93637L27.0754 0.299448C25.626 1.00516 24.4067 1.90259 23.4389 2.99904L24.8401 4.19683ZM27.8947 1.93819C28.0339 1.87064 28.1731 1.80673 28.3104 1.74647L27.5551 0.0794266C27.3974 0.147898 27.2387 0.220934 27.0791 0.297622L27.8947 1.93819ZM3.76455 19.4814C3.92879 19.1437 4.10787 18.8159 4.30088 18.4973L2.70674 17.5615C2.48404 17.9285 2.27897 18.3056 2.09061 18.6936L3.76455 19.4814ZM4.30459 18.49C5.30673 16.8019 6.63363 15.4809 8.29273 14.5086L7.34348 12.9392C5.40694 14.0731 3.8592 15.6206 2.70303 17.5688L4.30459 18.49ZM8.29273 14.5086C9.91663 13.5491 11.7712 13.0329 13.6653 13.0132L13.6356 11.1873C11.3836 11.2238 9.28187 11.8035 7.34348 12.9392L8.29273 14.5086ZM13.6504 13.0132C14.6294 13.0132 16.0073 13.3181 17.8372 13.991L18.4867 12.2819C16.5863 11.5826 14.9607 11.1873 13.6504 11.1873V13.0132ZM17.8353 13.99C18.6101 14.2838 19.3953 14.5502 20.1894 14.7889C20.7851 14.9623 21.3307 15.0874 21.7399 15.0874V13.2615C21.6267 13.2615 21.3131 13.2113 20.7155 13.0378C19.9645 12.8113 19.2218 12.5592 18.4885 12.2819L17.8353 13.991V13.99ZM21.7399 15.0874C21.958 15.0874 22.2076 15.0372 22.4266 14.9852C22.6697 14.9276 22.9648 14.8446 23.3044 14.7396C24.2197 14.4501 25.1281 14.1397 26.0287 13.8084L25.3875 12.0948C24.5154 12.4155 23.6367 12.7162 22.7504 12.9968C22.4294 13.0963 22.1779 13.1657 21.9914 13.2104C21.7817 13.2606 21.7177 13.2615 21.7399 13.2615V15.0874ZM26.0231 13.8102C28.0831 13.0789 29.7366 12.8087 31.0227 12.9164L31.1804 11.0969C29.5241 10.9581 27.5867 11.3151 25.3931 12.0929L26.0231 13.8102ZM31.0264 12.9164C34.7844 13.2159 37.506 14.6574 39.3126 17.1909L40.8316 16.1419C38.6556 13.0908 35.3876 11.432 31.1758 11.0969L31.0264 12.9164ZM39.59 15.8862C38.3281 16.6403 37.261 17.5076 36.399 18.4918L37.8057 19.6832C38.5229 18.8634 39.4342 18.1166 40.5541 17.4465L39.59 15.8862ZM37.1033 18.1741H2.92665V20H37.1023L37.1014 18.1741H37.1033Z" fill="#5C9E31"/>
<path fill-rule="evenodd" clip-rule="evenodd" d="M40.6599 18.052C38.0929 19.884 36.5699 22.219 36.0899 25.052H0.168945C0.463945 22.754 1.14795 20.704 2.22095 18.907C2.39295 18.613 2.57295 18.327 2.76095 18.052H40.6609H40.6599Z" fill="#FCEA2B"/>
<path fill-rule="evenodd" clip-rule="evenodd" d="M36.268 24.052C36.03 24.992 35.916 25.992 35.926 27.052C35.946 28.894 36.33 30.561 37.077 32.052H0.387C0.132051 30.5877 0.00258064 29.1043 0 27.618C0 26.366 0.0980001 25.178 0.295 24.052H36.268Z" fill="#F4AA41"/>
<path fill-rule="evenodd" clip-rule="evenodd" d="M36.4758 31.052C37.0398 32.801 38.0358 34.34 39.4658 35.668C40.4919 36.6531 41.6901 37.4415 43.0008 37.994L42.9808 38.052H1.88378C1.80178 37.828 1.72178 37.602 1.64278 37.374C0.905781 35.221 0.415781 33.114 0.175781 31.052H36.4758Z" fill="#EA5A47"/>
<path fill-rule="evenodd" clip-rule="evenodd" d="M39.6432 45.052C40.599 43.6216 41.4212 42.1062 42.0992 40.525C42.4254 39.7441 42.7259 38.9527 43.0002 38.152C42.9232 38.1195 42.8465 38.0862 42.7702 38.052H1.8252C2.7752 40.679 3.95519 43.01 5.36319 45.052H39.6432Z" fill="#8967AA"/>
<path fill-rule="evenodd" clip-rule="evenodd" d="M12.5395 51.052C11.4415 50.788 10.3455 50.146 9.25055 49.126C8.32255 48.314 7.17455 46.956 5.81055 45.052H39.2065C37.8305 47.002 36.6985 48.36 35.8195 49.126C34.6595 50.196 33.4315 50.836 32.1315 51.052H30.2275C29.2975 50.917 28.2475 50.61 27.0775 50.127C25.4405 49.457 23.9355 49.126 22.5595 49.126C21.1165 49.126 19.5685 49.458 17.9125 50.128C16.7925 50.582 15.8205 50.889 14.9925 51.052H12.5395Z" fill="#61B2E4"/>
</svg>
