<svg width="20" height="20" viewBox="0 0 20 20" fill="none" xmlns="http://www.w3.org/2000/svg">
<rect x="0.0839844" width="19.2741" height="19.2741" rx="9.63707" fill="#4A529B"/>
<path d="M9.99236 13.1263C9.52812 13.1263 9.11031 13.0467 8.73892 12.8876C8.36753 12.7218 8.07572 12.4897 7.8635 12.1912C7.65128 11.8928 7.54517 11.5446 7.54517 11.1467H8.75882C8.78534 11.4451 8.9014 11.6905 9.10699 11.8828C9.31922 12.0752 9.61434 12.1713 9.99236 12.1713C10.3836 12.1713 10.6887 12.0785 10.9076 11.8928C11.1264 11.7004 11.2359 11.4551 11.2359 11.1566C11.2359 10.9245 11.1662 10.7355 11.0269 10.5896C10.8943 10.4437 10.7252 10.3309 10.5196 10.2514C10.3206 10.1718 10.0421 10.0856 9.68397 9.99272C9.233 9.87334 8.86493 9.75397 8.57975 9.63459C8.30121 9.50858 8.06246 9.31626 7.8635 9.05761C7.66454 8.79896 7.56506 8.4541 7.56506 8.02302C7.56506 7.6251 7.66454 7.27693 7.8635 6.97849C8.06246 6.68005 8.341 6.45125 8.69913 6.29208C9.05725 6.13291 9.47175 6.05333 9.94262 6.05333C10.6124 6.05333 11.1596 6.22244 11.584 6.56067C12.0151 6.89227 12.2539 7.34988 12.3003 7.93349H11.0468C11.0269 7.68148 10.9076 7.46594 10.6887 7.28687C10.4699 7.10781 10.1814 7.01828 9.82325 7.01828C9.49828 7.01828 9.233 7.10118 9.02741 7.26698C8.82182 7.43278 8.71902 7.67153 8.71902 7.98323C8.71902 8.19545 8.78203 8.3712 8.90803 8.51047C9.04067 8.64311 9.20647 8.74922 9.40543 8.82881C9.60439 8.90839 9.8763 8.99461 10.2212 9.08745C10.6788 9.21346 11.0502 9.33947 11.3353 9.46547C11.6271 9.59148 11.8725 9.78713 12.0715 10.0524C12.2771 10.3111 12.3799 10.6592 12.3799 11.0969C12.3799 11.4484 12.2837 11.78 12.0914 12.0917C11.9057 12.4034 11.6305 12.6554 11.2657 12.8478C10.9076 13.0335 10.4831 13.1263 9.99236 13.1263Z" fill="white"/>
</svg>
