<svg width="58" height="58" viewBox="0 0 58 58" fill="none" xmlns="http://www.w3.org/2000/svg">
<path fill-rule="evenodd" clip-rule="evenodd" d="M58 29C58 45.0153 45.0153 58 29 58C12.9848 58 0 45.0153 0 29C0 12.9848 12.9848 0 29 0C45.0153 0 58 12.9848 58 29ZM14.5 39.15H36.25V23.2C36.25 22.6288 36.1375 22.0631 35.9189 21.5353C35.7003 21.0076 35.3799 20.528 34.9759 20.1241C34.572 19.7201 34.0924 19.3997 33.5647 19.1811C33.0369 18.9625 32.4713 18.85 31.9 18.85H10.15V34.8C10.15 35.9537 10.6083 37.0601 11.4241 37.8759C11.828 38.2799 12.3076 38.6003 12.8353 38.8189C13.3631 39.0375 13.9288 39.15 14.5 39.15ZM39.15 33.35L47.85 39.15V18.85L39.15 24.65V33.35Z" fill="#2D8CFF"/>
</svg>
